<svg width="25" height="25" viewBox="0 0 25 25" fill="none" xmlns="http://www.w3.org/2000/svg">
<path fill-rule="evenodd" clip-rule="evenodd" d="M12.5 2.04169C6.72401 2.04169 2.04166 6.72404 2.04166 12.5C2.04166 18.276 6.72401 22.9584 12.5 22.9584C18.276 22.9584 22.9583 18.276 22.9583 12.5C22.9583 6.72404 18.276 2.04169 12.5 2.04169ZM0.0416565 12.5C0.0416565 5.61947 5.61944 0.041687 12.5 0.041687C19.3805 0.041687 24.9583 5.61947 24.9583 12.5C24.9583 19.3806 19.3805 24.9584 12.5 24.9584C5.61944 24.9584 0.0416565 19.3806 0.0416565 12.5Z" fill="white"/>
<path fill-rule="evenodd" clip-rule="evenodd" d="M11.3848 11.7871V6.70899L13.3848 6.70899V11.7871H18.4629V13.7871H13.3848V18.8652L11.3848 18.8652V13.7871H6.30676V11.7871H11.3848Z" fill="white"/>
</svg>
