<svg width="25" height="25" viewBox="0 0 25 25" fill="none" xmlns="http://www.w3.org/2000/svg">
<path fill-rule="evenodd" clip-rule="evenodd" d="M9.37499 0.041626C4.22033 0.041626 0.0416565 4.2203 0.0416565 9.37496C0.0416565 14.5296 4.22033 18.7083 9.37499 18.7083C11.5921 18.7083 13.6286 17.9352 15.2298 16.644L23.2512 24.6654L24.6654 23.2512L16.644 15.2298C17.9353 13.6286 18.7083 11.5921 18.7083 9.37496C18.7083 4.2203 14.5296 0.041626 9.37499 0.041626ZM2.04166 9.37496C2.04166 5.32487 5.3249 2.04163 9.37499 2.04163C13.4251 2.04163 16.7083 5.32487 16.7083 9.37496C16.7083 13.425 13.4251 16.7083 9.37499 16.7083C5.3249 16.7083 2.04166 13.425 2.04166 9.37496Z" fill="#170C3A"/>
</svg>
